<mxfile host="app.diagrams.net" modified="2021-01-06T15:24:18.063Z" agent="5.0 (Windows NT 10.0; Win64; x64) AppleWebKit/537.36 (KHTML, like Gecko) Chrome/87.0.4280.88 Safari/537.36" etag="TnRlANERxbQPBcMQhHfM" version="14.1.8" type="github">
  <diagram id="C5RBs43oDa-KdzZeNtuy" name="Page-1">
    <mxGraphModel dx="1038" dy="588" grid="1" gridSize="10" guides="1" tooltips="1" connect="1" arrows="1" fold="1" page="1" pageScale="1" pageWidth="827" pageHeight="1169" math="0" shadow="0">
      <root>
        <mxCell id="WIyWlLk6GJQsqaUBKTNV-0" />
        <mxCell id="WIyWlLk6GJQsqaUBKTNV-1" parent="WIyWlLk6GJQsqaUBKTNV-0" />
        <mxCell id="FcUUAyZd2qGMRjVA3C2f-4" value="" style="endArrow=none;html=1;" edge="1" parent="WIyWlLk6GJQsqaUBKTNV-1">
          <mxGeometry width="50" height="50" relative="1" as="geometry">
            <mxPoint x="50" y="290" as="sourcePoint" />
            <mxPoint x="110" y="290" as="targetPoint" />
            <Array as="points" />
          </mxGeometry>
        </mxCell>
        <mxCell id="FcUUAyZd2qGMRjVA3C2f-5" value="" style="endArrow=none;html=1;" edge="1" parent="WIyWlLk6GJQsqaUBKTNV-1">
          <mxGeometry width="50" height="50" relative="1" as="geometry">
            <mxPoint x="80" y="313" as="sourcePoint" />
            <mxPoint x="80" y="270" as="targetPoint" />
            <Array as="points">
              <mxPoint x="80" y="323" />
              <mxPoint x="80" y="293" />
            </Array>
          </mxGeometry>
        </mxCell>
        <mxCell id="FcUUAyZd2qGMRjVA3C2f-6" value="" style="endArrow=none;html=1;" edge="1" parent="WIyWlLk6GJQsqaUBKTNV-1">
          <mxGeometry width="50" height="50" relative="1" as="geometry">
            <mxPoint x="40" y="360" as="sourcePoint" />
            <mxPoint x="80" y="320" as="targetPoint" />
          </mxGeometry>
        </mxCell>
        <mxCell id="FcUUAyZd2qGMRjVA3C2f-7" value="" style="endArrow=none;html=1;" edge="1" parent="WIyWlLk6GJQsqaUBKTNV-1">
          <mxGeometry width="50" height="50" relative="1" as="geometry">
            <mxPoint x="120" y="360" as="sourcePoint" />
            <mxPoint x="80" y="320" as="targetPoint" />
            <Array as="points" />
          </mxGeometry>
        </mxCell>
        <mxCell id="FcUUAyZd2qGMRjVA3C2f-11" value="" style="ellipse;whiteSpace=wrap;html=1;" vertex="1" parent="WIyWlLk6GJQsqaUBKTNV-1">
          <mxGeometry x="60" y="230" width="40" height="40" as="geometry" />
        </mxCell>
        <mxCell id="FcUUAyZd2qGMRjVA3C2f-12" value="Agent De Voyages" style="text;html=1;align=center;verticalAlign=middle;resizable=0;points=[];autosize=1;" vertex="1" parent="WIyWlLk6GJQsqaUBKTNV-1">
          <mxGeometry x="25" y="370" width="110" height="20" as="geometry" />
        </mxCell>
        <mxCell id="FcUUAyZd2qGMRjVA3C2f-13" value="" style="rounded=0;whiteSpace=wrap;html=1;" vertex="1" parent="WIyWlLk6GJQsqaUBKTNV-1">
          <mxGeometry x="160" y="200" width="640" height="290" as="geometry" />
        </mxCell>
        <mxCell id="FcUUAyZd2qGMRjVA3C2f-14" value="Agence De Voyages&amp;nbsp;" style="text;html=1;strokeColor=none;fillColor=none;align=center;verticalAlign=middle;whiteSpace=wrap;rounded=0;" vertex="1" parent="WIyWlLk6GJQsqaUBKTNV-1">
          <mxGeometry x="360" y="210" width="220" height="20" as="geometry" />
        </mxCell>
        <mxCell id="FcUUAyZd2qGMRjVA3C2f-15" value="" style="ellipse;whiteSpace=wrap;html=1;" vertex="1" parent="WIyWlLk6GJQsqaUBKTNV-1">
          <mxGeometry x="180" y="260" width="150" height="60" as="geometry" />
        </mxCell>
        <mxCell id="FcUUAyZd2qGMRjVA3C2f-16" value="Réserver Une Chambre d&#39;hôtel&amp;nbsp;" style="text;html=1;strokeColor=none;fillColor=none;align=center;verticalAlign=middle;whiteSpace=wrap;rounded=0;" vertex="1" parent="WIyWlLk6GJQsqaUBKTNV-1">
          <mxGeometry x="190" y="290" width="140" height="10" as="geometry" />
        </mxCell>
        <mxCell id="FcUUAyZd2qGMRjVA3C2f-18" value="" style="ellipse;whiteSpace=wrap;html=1;" vertex="1" parent="WIyWlLk6GJQsqaUBKTNV-1">
          <mxGeometry x="370" y="270" width="180" height="50" as="geometry" />
        </mxCell>
        <mxCell id="FcUUAyZd2qGMRjVA3C2f-20" value="Réserver Un Taxi" style="text;html=1;strokeColor=none;fillColor=none;align=center;verticalAlign=middle;whiteSpace=wrap;rounded=0;" vertex="1" parent="WIyWlLk6GJQsqaUBKTNV-1">
          <mxGeometry x="390" y="280" width="130" height="20" as="geometry" />
        </mxCell>
        <mxCell id="FcUUAyZd2qGMRjVA3C2f-21" value="" style="ellipse;whiteSpace=wrap;html=1;" vertex="1" parent="WIyWlLk6GJQsqaUBKTNV-1">
          <mxGeometry x="580" y="270" width="180" height="50" as="geometry" />
        </mxCell>
        <mxCell id="FcUUAyZd2qGMRjVA3C2f-23" value="Réserver Un Billet De Train" style="text;html=1;strokeColor=none;fillColor=none;align=center;verticalAlign=middle;whiteSpace=wrap;rounded=0;" vertex="1" parent="WIyWlLk6GJQsqaUBKTNV-1">
          <mxGeometry x="565" y="285" width="210" height="20" as="geometry" />
        </mxCell>
        <mxCell id="FcUUAyZd2qGMRjVA3C2f-24" value="" style="ellipse;whiteSpace=wrap;html=1;" vertex="1" parent="WIyWlLk6GJQsqaUBKTNV-1">
          <mxGeometry x="370" y="370" width="180" height="60" as="geometry" />
        </mxCell>
        <mxCell id="FcUUAyZd2qGMRjVA3C2f-25" value="Organiser Un Voyage&amp;nbsp;" style="text;html=1;strokeColor=none;fillColor=none;align=center;verticalAlign=middle;whiteSpace=wrap;rounded=0;" vertex="1" parent="WIyWlLk6GJQsqaUBKTNV-1">
          <mxGeometry x="390" y="390" width="150" height="20" as="geometry" />
        </mxCell>
      </root>
    </mxGraphModel>
  </diagram>
</mxfile>
